<mxfile host="Electron" modified="2023-09-12T02:04:10.192Z" agent="Mozilla/5.0 (Windows NT 10.0; Win64; x64) AppleWebKit/537.36 (KHTML, like Gecko) draw.io/21.6.8 Chrome/114.0.5735.289 Electron/25.5.0 Safari/537.36" etag="S8vAbTZImCMKkNRbp9uR" version="21.6.8" type="device">
  <diagram name="Page-1" id="kHOHt6zfAuVw2W45-umo">
    <mxGraphModel dx="-69" dy="2500" grid="1" gridSize="10" guides="1" tooltips="1" connect="1" arrows="1" fold="1" page="1" pageScale="1" pageWidth="827" pageHeight="1169" math="0" shadow="0">
      <root>
        <mxCell id="0" />
        <mxCell id="1" parent="0" />
        <mxCell id="qkw1Q6Vu093MNAPtEX1U-56" value="" style="rounded=0;whiteSpace=wrap;html=1;" vertex="1" parent="1">
          <mxGeometry x="940" y="-470" width="1490" height="1550" as="geometry" />
        </mxCell>
        <mxCell id="G22dxIrqqhjrFOfUFqIZ-2" value="&lt;font style=&quot;font-size: 15px;&quot;&gt;&lt;b&gt;Guest Users&lt;/b&gt;&lt;/font&gt;" style="shape=umlActor;verticalLabelPosition=bottom;verticalAlign=top;html=1;outlineConnect=0;fillColor=#ffe6cc;strokeColor=#d79b00;" parent="1" vertex="1">
          <mxGeometry x="1040" y="-250" width="40" height="80" as="geometry" />
        </mxCell>
        <mxCell id="G22dxIrqqhjrFOfUFqIZ-3" value="&lt;font size=&quot;1&quot; color=&quot;#000000&quot;&gt;&lt;b style=&quot;font-size: 15px;&quot;&gt;Registered Users&lt;/b&gt;&lt;/font&gt;" style="shape=umlActor;verticalLabelPosition=bottom;verticalAlign=top;html=1;outlineConnect=0;fillColor=#ffe6cc;strokeColor=#d79b00;" parent="1" vertex="1">
          <mxGeometry x="1040" y="155" width="40" height="80" as="geometry" />
        </mxCell>
        <mxCell id="G22dxIrqqhjrFOfUFqIZ-5" value="&lt;font size=&quot;1&quot; color=&quot;#000000&quot;&gt;&lt;b style=&quot;font-size: 15px;&quot;&gt;Staffs&lt;/b&gt;&lt;/font&gt;" style="shape=umlActor;verticalLabelPosition=bottom;verticalAlign=top;html=1;outlineConnect=0;fillColor=#ffe6cc;strokeColor=#d79b00;" parent="1" vertex="1">
          <mxGeometry x="1040" y="485" width="40" height="80" as="geometry" />
        </mxCell>
        <mxCell id="G22dxIrqqhjrFOfUFqIZ-6" value="&lt;b&gt;&lt;font style=&quot;font-size: 15px;&quot;&gt;Managers&lt;/font&gt;&lt;/b&gt;" style="shape=umlActor;verticalLabelPosition=bottom;verticalAlign=top;html=1;outlineConnect=0;fillColor=#ffe6cc;strokeColor=#d79b00;" parent="1" vertex="1">
          <mxGeometry x="1040" y="700" width="40" height="80" as="geometry" />
        </mxCell>
        <mxCell id="G22dxIrqqhjrFOfUFqIZ-15" value="&lt;b&gt;&lt;font style=&quot;font-size: 15px;&quot;&gt;Admins&lt;/font&gt;&lt;/b&gt;" style="shape=umlActor;verticalLabelPosition=bottom;verticalAlign=top;html=1;outlineConnect=0;fillColor=#f5f5f5;strokeColor=#666666;gradientColor=#b3b3b3;" parent="1" vertex="1">
          <mxGeometry x="1040" y="880" width="40" height="80" as="geometry" />
        </mxCell>
        <mxCell id="G22dxIrqqhjrFOfUFqIZ-18" value="&lt;font style=&quot;font-size: 14px;&quot;&gt;Dang xuat&lt;/font&gt;" style="ellipse;whiteSpace=wrap;html=1;" parent="1" vertex="1">
          <mxGeometry x="2230" y="65" width="135" height="60" as="geometry" />
        </mxCell>
        <mxCell id="G22dxIrqqhjrFOfUFqIZ-19" value="&lt;font style=&quot;font-size: 14px;&quot;&gt;Doi mat khau&lt;/font&gt;" style="ellipse;whiteSpace=wrap;html=1;" parent="1" vertex="1">
          <mxGeometry x="2232.5" y="255" width="130" height="60" as="geometry" />
        </mxCell>
        <mxCell id="G22dxIrqqhjrFOfUFqIZ-20" value="&lt;b&gt;&lt;font style=&quot;font-size: 14px;&quot;&gt;Employees management&lt;/font&gt;&lt;/b&gt;" style="ellipse;whiteSpace=wrap;html=1;fillColor=#fff2cc;strokeColor=#d6b656;" parent="1" vertex="1">
          <mxGeometry x="1440" y="700" width="180" height="70" as="geometry" />
        </mxCell>
        <mxCell id="G22dxIrqqhjrFOfUFqIZ-21" value="&lt;b&gt;&lt;font style=&quot;font-size: 14px;&quot;&gt;Users management&lt;/font&gt;&lt;/b&gt;" style="ellipse;whiteSpace=wrap;html=1;fillColor=#f5f5f5;strokeColor=#666666;gradientColor=#b3b3b3;" parent="1" vertex="1">
          <mxGeometry x="1440" y="830" width="180" height="61" as="geometry" />
        </mxCell>
        <mxCell id="G22dxIrqqhjrFOfUFqIZ-22" value="&lt;b&gt;&lt;font style=&quot;font-size: 14px;&quot;&gt;System management&lt;/font&gt;&lt;/b&gt;" style="ellipse;whiteSpace=wrap;html=1;fillColor=#f5f5f5;strokeColor=#666666;gradientColor=#b3b3b3;" parent="1" vertex="1">
          <mxGeometry x="1440" y="942" width="180" height="69" as="geometry" />
        </mxCell>
        <mxCell id="G22dxIrqqhjrFOfUFqIZ-34" value="" style="endArrow=open;html=1;rounded=0;entryX=0;entryY=0.5;entryDx=0;entryDy=0;endFill=0;endSize=15;" parent="1" target="G22dxIrqqhjrFOfUFqIZ-21" edge="1">
          <mxGeometry width="50" height="50" relative="1" as="geometry">
            <mxPoint x="1090" y="910" as="sourcePoint" />
            <mxPoint x="1020" y="692" as="targetPoint" />
          </mxGeometry>
        </mxCell>
        <mxCell id="G22dxIrqqhjrFOfUFqIZ-35" value="" style="endArrow=open;html=1;rounded=0;entryX=0;entryY=0.5;entryDx=0;entryDy=0;endFill=0;endSize=15;" parent="1" target="G22dxIrqqhjrFOfUFqIZ-22" edge="1">
          <mxGeometry width="50" height="50" relative="1" as="geometry">
            <mxPoint x="1090" y="930" as="sourcePoint" />
            <mxPoint x="1010" y="762" as="targetPoint" />
          </mxGeometry>
        </mxCell>
        <mxCell id="G22dxIrqqhjrFOfUFqIZ-37" value="&lt;font style=&quot;font-size: 14px;&quot;&gt;Quen mat khau&lt;/font&gt;" style="ellipse;whiteSpace=wrap;html=1;" parent="1" vertex="1">
          <mxGeometry x="2230" y="160" width="130" height="60" as="geometry" />
        </mxCell>
        <mxCell id="qkw1Q6Vu093MNAPtEX1U-2" value="" style="endArrow=block;html=1;rounded=0;align=center;verticalAlign=bottom;endFill=0;labelBackgroundColor=none;endSize=8;" edge="1" parent="1">
          <mxGeometry relative="1" as="geometry">
            <mxPoint x="1060" y="140" as="sourcePoint" />
            <mxPoint x="1060" y="-140" as="targetPoint" />
          </mxGeometry>
        </mxCell>
        <mxCell id="qkw1Q6Vu093MNAPtEX1U-3" value="" style="resizable=0;html=1;align=center;verticalAlign=top;labelBackgroundColor=none;" connectable="0" vertex="1" parent="qkw1Q6Vu093MNAPtEX1U-2">
          <mxGeometry relative="1" as="geometry">
            <mxPoint y="-40" as="offset" />
          </mxGeometry>
        </mxCell>
        <mxCell id="qkw1Q6Vu093MNAPtEX1U-4" value="" style="endArrow=block;html=1;rounded=0;align=center;verticalAlign=bottom;endFill=0;labelBackgroundColor=none;endSize=8;" edge="1" parent="1">
          <mxGeometry relative="1" as="geometry">
            <mxPoint x="1060" y="470" as="sourcePoint" />
            <mxPoint x="1059.52" y="260" as="targetPoint" />
          </mxGeometry>
        </mxCell>
        <mxCell id="qkw1Q6Vu093MNAPtEX1U-5" value="" style="resizable=0;html=1;align=center;verticalAlign=top;labelBackgroundColor=none;" connectable="0" vertex="1" parent="qkw1Q6Vu093MNAPtEX1U-4">
          <mxGeometry relative="1" as="geometry">
            <mxPoint y="-110" as="offset" />
          </mxGeometry>
        </mxCell>
        <mxCell id="qkw1Q6Vu093MNAPtEX1U-6" value="" style="endArrow=block;html=1;rounded=0;align=center;verticalAlign=bottom;endFill=0;labelBackgroundColor=none;endSize=8;" edge="1" parent="1">
          <mxGeometry relative="1" as="geometry">
            <mxPoint x="1060" y="690" as="sourcePoint" />
            <mxPoint x="1060" y="590" as="targetPoint" />
          </mxGeometry>
        </mxCell>
        <mxCell id="qkw1Q6Vu093MNAPtEX1U-7" value="" style="resizable=0;html=1;align=center;verticalAlign=top;labelBackgroundColor=none;" connectable="0" vertex="1" parent="qkw1Q6Vu093MNAPtEX1U-6">
          <mxGeometry relative="1" as="geometry" />
        </mxCell>
        <mxCell id="qkw1Q6Vu093MNAPtEX1U-8" value="&lt;b&gt;&lt;font style=&quot;font-size: 14px;&quot;&gt;Xem danh sach san pham&lt;/font&gt;&lt;/b&gt;" style="ellipse;whiteSpace=wrap;html=1;fillColor=#fff2cc;strokeColor=#d6b656;" vertex="1" parent="1">
          <mxGeometry x="1440" y="-300" width="180" height="70" as="geometry" />
        </mxCell>
        <mxCell id="qkw1Q6Vu093MNAPtEX1U-10" value="&lt;font style=&quot;font-size: 14px;&quot;&gt;Xem thong tin chi tiet san pham&lt;/font&gt;" style="ellipse;whiteSpace=wrap;html=1;" vertex="1" parent="1">
          <mxGeometry x="1760" y="-300" width="150" height="70" as="geometry" />
        </mxCell>
        <mxCell id="qkw1Q6Vu093MNAPtEX1U-11" value="&lt;b&gt;&lt;font style=&quot;font-size: 14px;&quot;&gt;Xem cac tin tuc, su kien&lt;/font&gt;&lt;/b&gt;" style="ellipse;whiteSpace=wrap;html=1;fillColor=#fff2cc;strokeColor=#d6b656;" vertex="1" parent="1">
          <mxGeometry x="1440" y="-190" width="180" height="70" as="geometry" />
        </mxCell>
        <mxCell id="qkw1Q6Vu093MNAPtEX1U-12" value="&lt;b&gt;&lt;font style=&quot;font-size: 14px;&quot;&gt;Tim kiem&lt;/font&gt;&lt;/b&gt;" style="ellipse;whiteSpace=wrap;html=1;fillColor=#fff2cc;strokeColor=#d6b656;" vertex="1" parent="1">
          <mxGeometry x="1440" y="-80" width="180" height="70" as="geometry" />
        </mxCell>
        <mxCell id="qkw1Q6Vu093MNAPtEX1U-14" value="&lt;b&gt;&lt;font style=&quot;font-size: 14px;&quot;&gt;Them vao gio hang&lt;/font&gt;&lt;/b&gt;" style="ellipse;whiteSpace=wrap;html=1;fillColor=#fff2cc;strokeColor=#d6b656;" vertex="1" parent="1">
          <mxGeometry x="1440" y="40" width="180" height="70" as="geometry" />
        </mxCell>
        <mxCell id="qkw1Q6Vu093MNAPtEX1U-15" value="&lt;font style=&quot;font-size: 14px;&quot;&gt;Tu thiet ke mau san pham&lt;/font&gt;" style="ellipse;whiteSpace=wrap;html=1;" vertex="1" parent="1">
          <mxGeometry x="1760" y="-30" width="140" height="70" as="geometry" />
        </mxCell>
        <mxCell id="qkw1Q6Vu093MNAPtEX1U-16" value="&lt;b&gt;&lt;font style=&quot;font-size: 14px;&quot;&gt;Dat mua&lt;/font&gt;&lt;/b&gt;" style="ellipse;whiteSpace=wrap;html=1;fillColor=#fff2cc;strokeColor=#d6b656;" vertex="1" parent="1">
          <mxGeometry x="1440" y="160" width="180" height="70" as="geometry" />
        </mxCell>
        <mxCell id="qkw1Q6Vu093MNAPtEX1U-17" value="&lt;b&gt;&lt;font style=&quot;font-size: 14px;&quot;&gt;Xem danh sach don hang&lt;/font&gt;&lt;/b&gt;" style="ellipse;whiteSpace=wrap;html=1;fillColor=#fff2cc;strokeColor=#d6b656;" vertex="1" parent="1">
          <mxGeometry x="1440" y="270" width="180" height="70" as="geometry" />
        </mxCell>
        <mxCell id="qkw1Q6Vu093MNAPtEX1U-18" value="&lt;font style=&quot;font-size: 14px;&quot;&gt;Chinh sua don hang&lt;/font&gt;" style="ellipse;whiteSpace=wrap;html=1;" vertex="1" parent="1">
          <mxGeometry x="1760" y="320" width="140" height="70" as="geometry" />
        </mxCell>
        <mxCell id="qkw1Q6Vu093MNAPtEX1U-19" value="&lt;font style=&quot;font-size: 14px;&quot;&gt;Thanh toan online&lt;/font&gt;" style="ellipse;whiteSpace=wrap;html=1;" vertex="1" parent="1">
          <mxGeometry x="1660" y="120" width="126" height="60" as="geometry" />
        </mxCell>
        <mxCell id="qkw1Q6Vu093MNAPtEX1U-20" value="&lt;b&gt;&lt;font style=&quot;font-size: 14px;&quot;&gt;Quan ly san pham&lt;/font&gt;&lt;/b&gt;" style="ellipse;whiteSpace=wrap;html=1;fillColor=#fff2cc;strokeColor=#d6b656;" vertex="1" parent="1">
          <mxGeometry x="1440" y="400" width="180" height="70" as="geometry" />
        </mxCell>
        <mxCell id="qkw1Q6Vu093MNAPtEX1U-21" value="&lt;b&gt;&lt;font style=&quot;font-size: 14px;&quot;&gt;Quan ly khach hang&lt;/font&gt;&lt;/b&gt;" style="ellipse;whiteSpace=wrap;html=1;fillColor=#fff2cc;strokeColor=#d6b656;" vertex="1" parent="1">
          <mxGeometry x="1440" y="490" width="180" height="70" as="geometry" />
        </mxCell>
        <mxCell id="qkw1Q6Vu093MNAPtEX1U-22" value="&lt;b&gt;&lt;font style=&quot;font-size: 14px;&quot;&gt;Thong ke bao cao&lt;/font&gt;&lt;/b&gt;" style="ellipse;whiteSpace=wrap;html=1;fillColor=#fff2cc;strokeColor=#d6b656;" vertex="1" parent="1">
          <mxGeometry x="1440" y="590" width="180" height="70" as="geometry" />
        </mxCell>
        <mxCell id="qkw1Q6Vu093MNAPtEX1U-23" value="&lt;b&gt;&lt;font style=&quot;font-size: 14px;&quot;&gt;Dang ky&lt;/font&gt;&lt;/b&gt;" style="ellipse;whiteSpace=wrap;html=1;fillColor=#fff2cc;strokeColor=#d6b656;" vertex="1" parent="1">
          <mxGeometry x="1440" y="-410" width="180" height="70" as="geometry" />
        </mxCell>
        <mxCell id="qkw1Q6Vu093MNAPtEX1U-24" value="&lt;b&gt;&lt;font style=&quot;font-size: 14px;&quot;&gt;Dang nhap&lt;/font&gt;&lt;/b&gt;" style="ellipse;whiteSpace=wrap;html=1;fillColor=#f8cecc;strokeColor=#b85450;" vertex="1" parent="1">
          <mxGeometry x="1930" y="155" width="180" height="70" as="geometry" />
        </mxCell>
        <mxCell id="qkw1Q6Vu093MNAPtEX1U-25" value="&lt;b&gt;&lt;font style=&quot;font-size: 14px;&quot;&gt;Dang nhap quan tri&lt;/font&gt;&lt;/b&gt;" style="ellipse;whiteSpace=wrap;html=1;fillColor=#f8cecc;strokeColor=#b85450;" vertex="1" parent="1">
          <mxGeometry x="1870" y="530" width="180" height="70" as="geometry" />
        </mxCell>
        <mxCell id="qkw1Q6Vu093MNAPtEX1U-26" value="" style="endArrow=open;startArrow=none;endFill=0;startFill=0;endSize=8;html=1;verticalAlign=bottom;labelBackgroundColor=none;strokeWidth=1;rounded=0;entryX=0;entryY=0.5;entryDx=0;entryDy=0;" edge="1" parent="1" target="qkw1Q6Vu093MNAPtEX1U-23">
          <mxGeometry width="160" relative="1" as="geometry">
            <mxPoint x="1090" y="-240" as="sourcePoint" />
            <mxPoint x="1860" y="130" as="targetPoint" />
          </mxGeometry>
        </mxCell>
        <mxCell id="qkw1Q6Vu093MNAPtEX1U-28" value="" style="endArrow=open;startArrow=none;endFill=0;startFill=0;endSize=8;html=1;verticalAlign=bottom;labelBackgroundColor=none;strokeWidth=1;rounded=0;entryX=0;entryY=0.5;entryDx=0;entryDy=0;" edge="1" parent="1" target="qkw1Q6Vu093MNAPtEX1U-8">
          <mxGeometry width="160" relative="1" as="geometry">
            <mxPoint x="1090" y="-220" as="sourcePoint" />
            <mxPoint x="1570" y="-195" as="targetPoint" />
          </mxGeometry>
        </mxCell>
        <mxCell id="qkw1Q6Vu093MNAPtEX1U-29" value="" style="endArrow=open;startArrow=none;endFill=0;startFill=0;endSize=8;html=1;verticalAlign=bottom;labelBackgroundColor=none;strokeWidth=1;rounded=0;entryX=0;entryY=0.5;entryDx=0;entryDy=0;" edge="1" parent="1" target="qkw1Q6Vu093MNAPtEX1U-11">
          <mxGeometry width="160" relative="1" as="geometry">
            <mxPoint x="1090" y="-200" as="sourcePoint" />
            <mxPoint x="1570" y="-225" as="targetPoint" />
          </mxGeometry>
        </mxCell>
        <mxCell id="qkw1Q6Vu093MNAPtEX1U-30" value="" style="endArrow=open;startArrow=none;endFill=0;startFill=0;endSize=8;html=1;verticalAlign=bottom;labelBackgroundColor=none;strokeWidth=1;rounded=0;entryX=0;entryY=0.5;entryDx=0;entryDy=0;" edge="1" parent="1" target="qkw1Q6Vu093MNAPtEX1U-12">
          <mxGeometry width="160" relative="1" as="geometry">
            <mxPoint x="1090" y="-180" as="sourcePoint" />
            <mxPoint x="1580" y="-215" as="targetPoint" />
          </mxGeometry>
        </mxCell>
        <mxCell id="qkw1Q6Vu093MNAPtEX1U-31" value="&amp;lt;&amp;lt;extend&amp;gt;&amp;gt;" style="html=1;verticalAlign=bottom;labelBackgroundColor=none;endArrow=open;endFill=0;dashed=1;rounded=0;entryX=1;entryY=0.5;entryDx=0;entryDy=0;exitX=0;exitY=0.5;exitDx=0;exitDy=0;" edge="1" parent="1" source="qkw1Q6Vu093MNAPtEX1U-10" target="qkw1Q6Vu093MNAPtEX1U-8">
          <mxGeometry width="160" relative="1" as="geometry">
            <mxPoint x="1910" y="-70" as="sourcePoint" />
            <mxPoint x="2070" y="-70" as="targetPoint" />
          </mxGeometry>
        </mxCell>
        <mxCell id="qkw1Q6Vu093MNAPtEX1U-32" value="" style="endArrow=open;startArrow=none;endFill=0;startFill=0;endSize=8;html=1;verticalAlign=bottom;labelBackgroundColor=none;strokeWidth=1;rounded=0;entryX=0;entryY=0.5;entryDx=0;entryDy=0;" edge="1" parent="1" target="qkw1Q6Vu093MNAPtEX1U-14">
          <mxGeometry width="160" relative="1" as="geometry">
            <mxPoint x="1090" y="170" as="sourcePoint" />
            <mxPoint x="1470" y="150" as="targetPoint" />
          </mxGeometry>
        </mxCell>
        <mxCell id="qkw1Q6Vu093MNAPtEX1U-33" value="" style="endArrow=open;startArrow=none;endFill=0;startFill=0;endSize=8;html=1;verticalAlign=bottom;labelBackgroundColor=none;strokeWidth=1;rounded=0;entryX=0.004;entryY=0.414;entryDx=0;entryDy=0;entryPerimeter=0;" edge="1" parent="1" target="qkw1Q6Vu093MNAPtEX1U-16">
          <mxGeometry width="160" relative="1" as="geometry">
            <mxPoint x="1090" y="190" as="sourcePoint" />
            <mxPoint x="1575" y="155" as="targetPoint" />
          </mxGeometry>
        </mxCell>
        <mxCell id="qkw1Q6Vu093MNAPtEX1U-34" value="" style="endArrow=open;startArrow=none;endFill=0;startFill=0;endSize=8;html=1;verticalAlign=bottom;labelBackgroundColor=none;strokeWidth=1;rounded=0;entryX=0;entryY=0.5;entryDx=0;entryDy=0;" edge="1" parent="1" target="qkw1Q6Vu093MNAPtEX1U-17">
          <mxGeometry width="160" relative="1" as="geometry">
            <mxPoint x="1090" y="210" as="sourcePoint" />
            <mxPoint x="1625" y="232.5" as="targetPoint" />
          </mxGeometry>
        </mxCell>
        <mxCell id="qkw1Q6Vu093MNAPtEX1U-35" value="&amp;lt;&amp;lt;extend&amp;gt;&amp;gt;" style="html=1;verticalAlign=bottom;labelBackgroundColor=none;endArrow=open;endFill=0;dashed=1;rounded=0;exitX=0;exitY=0.5;exitDx=0;exitDy=0;entryX=1;entryY=0;entryDx=0;entryDy=0;" edge="1" parent="1" source="qkw1Q6Vu093MNAPtEX1U-15" target="qkw1Q6Vu093MNAPtEX1U-14">
          <mxGeometry width="160" relative="1" as="geometry">
            <mxPoint x="1920" y="210" as="sourcePoint" />
            <mxPoint x="2080" y="210" as="targetPoint" />
          </mxGeometry>
        </mxCell>
        <mxCell id="qkw1Q6Vu093MNAPtEX1U-36" value="&amp;lt;&amp;lt;extend&amp;gt;&amp;gt;" style="html=1;verticalAlign=bottom;labelBackgroundColor=none;endArrow=open;endFill=0;dashed=1;rounded=0;exitX=0;exitY=0.5;exitDx=0;exitDy=0;entryX=0.772;entryY=0.043;entryDx=0;entryDy=0;entryPerimeter=0;" edge="1" parent="1" source="qkw1Q6Vu093MNAPtEX1U-19" target="qkw1Q6Vu093MNAPtEX1U-16">
          <mxGeometry width="160" relative="1" as="geometry">
            <mxPoint x="1920" y="360" as="sourcePoint" />
            <mxPoint x="1590" y="190" as="targetPoint" />
          </mxGeometry>
        </mxCell>
        <mxCell id="qkw1Q6Vu093MNAPtEX1U-37" value="&amp;lt;&amp;lt;extend&amp;gt;&amp;gt;" style="html=1;verticalAlign=bottom;labelBackgroundColor=none;endArrow=open;endFill=0;dashed=1;rounded=0;exitX=0;exitY=0.5;exitDx=0;exitDy=0;entryX=1;entryY=1;entryDx=0;entryDy=0;" edge="1" parent="1" source="qkw1Q6Vu093MNAPtEX1U-18" target="qkw1Q6Vu093MNAPtEX1U-17">
          <mxGeometry width="160" relative="1" as="geometry">
            <mxPoint x="1930" y="420" as="sourcePoint" />
            <mxPoint x="2090" y="420" as="targetPoint" />
          </mxGeometry>
        </mxCell>
        <mxCell id="qkw1Q6Vu093MNAPtEX1U-38" value="" style="endArrow=open;startArrow=none;endFill=0;startFill=0;endSize=8;html=1;verticalAlign=bottom;labelBackgroundColor=none;strokeWidth=1;rounded=0;entryX=0;entryY=0.5;entryDx=0;entryDy=0;" edge="1" parent="1" target="qkw1Q6Vu093MNAPtEX1U-20">
          <mxGeometry width="160" relative="1" as="geometry">
            <mxPoint x="1090" y="510" as="sourcePoint" />
            <mxPoint x="1830" y="400" as="targetPoint" />
          </mxGeometry>
        </mxCell>
        <mxCell id="qkw1Q6Vu093MNAPtEX1U-39" value="" style="endArrow=open;startArrow=none;endFill=0;startFill=0;endSize=8;html=1;verticalAlign=bottom;labelBackgroundColor=none;strokeWidth=1;rounded=0;entryX=0;entryY=0.5;entryDx=0;entryDy=0;" edge="1" parent="1" target="qkw1Q6Vu093MNAPtEX1U-21">
          <mxGeometry width="160" relative="1" as="geometry">
            <mxPoint x="1090" y="530" as="sourcePoint" />
            <mxPoint x="1560" y="470" as="targetPoint" />
          </mxGeometry>
        </mxCell>
        <mxCell id="qkw1Q6Vu093MNAPtEX1U-40" value="" style="endArrow=open;startArrow=none;endFill=0;startFill=0;endSize=8;html=1;verticalAlign=bottom;labelBackgroundColor=none;strokeWidth=1;rounded=0;entryX=0;entryY=0.5;entryDx=0;entryDy=0;" edge="1" parent="1" target="qkw1Q6Vu093MNAPtEX1U-22">
          <mxGeometry width="160" relative="1" as="geometry">
            <mxPoint x="1090" y="550" as="sourcePoint" />
            <mxPoint x="1537" y="590" as="targetPoint" />
          </mxGeometry>
        </mxCell>
        <mxCell id="qkw1Q6Vu093MNAPtEX1U-41" value="&amp;lt;&amp;lt;include&amp;gt;&amp;gt;" style="html=1;verticalAlign=bottom;labelBackgroundColor=none;endArrow=open;endFill=0;dashed=1;rounded=0;exitX=1;exitY=0.5;exitDx=0;exitDy=0;entryX=0.098;entryY=0.153;entryDx=0;entryDy=0;entryPerimeter=0;" edge="1" parent="1" source="qkw1Q6Vu093MNAPtEX1U-14" target="qkw1Q6Vu093MNAPtEX1U-24">
          <mxGeometry width="160" relative="1" as="geometry">
            <mxPoint x="1880" y="380" as="sourcePoint" />
            <mxPoint x="2110" y="150" as="targetPoint" />
          </mxGeometry>
        </mxCell>
        <mxCell id="qkw1Q6Vu093MNAPtEX1U-42" value="&amp;lt;&amp;lt;include&amp;gt;&amp;gt;" style="html=1;verticalAlign=bottom;labelBackgroundColor=none;endArrow=open;endFill=0;dashed=1;rounded=0;entryX=0;entryY=0.5;entryDx=0;entryDy=0;exitX=1;exitY=0.5;exitDx=0;exitDy=0;" edge="1" parent="1" source="qkw1Q6Vu093MNAPtEX1U-16" target="qkw1Q6Vu093MNAPtEX1U-24">
          <mxGeometry width="160" relative="1" as="geometry">
            <mxPoint x="1670" y="270" as="sourcePoint" />
            <mxPoint x="2040" y="380" as="targetPoint" />
          </mxGeometry>
        </mxCell>
        <mxCell id="qkw1Q6Vu093MNAPtEX1U-43" value="&amp;lt;&amp;lt;include&amp;gt;&amp;gt;" style="html=1;verticalAlign=bottom;labelBackgroundColor=none;endArrow=open;endFill=0;dashed=1;rounded=0;entryX=0.075;entryY=0.839;entryDx=0;entryDy=0;entryPerimeter=0;exitX=1;exitY=0.5;exitDx=0;exitDy=0;" edge="1" parent="1" source="qkw1Q6Vu093MNAPtEX1U-17" target="qkw1Q6Vu093MNAPtEX1U-24">
          <mxGeometry width="160" relative="1" as="geometry">
            <mxPoint x="1640" y="360" as="sourcePoint" />
            <mxPoint x="2110" y="280" as="targetPoint" />
          </mxGeometry>
        </mxCell>
        <mxCell id="qkw1Q6Vu093MNAPtEX1U-44" value="&amp;lt;&amp;lt;include&amp;gt;&amp;gt;" style="html=1;verticalAlign=bottom;labelBackgroundColor=none;endArrow=open;endFill=0;dashed=1;rounded=0;exitX=1;exitY=0.5;exitDx=0;exitDy=0;entryX=0;entryY=0;entryDx=0;entryDy=0;" edge="1" parent="1" source="qkw1Q6Vu093MNAPtEX1U-20" target="qkw1Q6Vu093MNAPtEX1U-25">
          <mxGeometry width="160" relative="1" as="geometry">
            <mxPoint x="1770" y="420" as="sourcePoint" />
            <mxPoint x="2040" y="610" as="targetPoint" />
          </mxGeometry>
        </mxCell>
        <mxCell id="qkw1Q6Vu093MNAPtEX1U-45" value="&amp;lt;&amp;lt;include&amp;gt;&amp;gt;" style="html=1;verticalAlign=bottom;labelBackgroundColor=none;endArrow=open;endFill=0;dashed=1;rounded=0;exitX=1;exitY=0.5;exitDx=0;exitDy=0;entryX=0;entryY=0.5;entryDx=0;entryDy=0;" edge="1" parent="1" source="qkw1Q6Vu093MNAPtEX1U-21" target="qkw1Q6Vu093MNAPtEX1U-25">
          <mxGeometry width="160" relative="1" as="geometry">
            <mxPoint x="1880" y="610" as="sourcePoint" />
            <mxPoint x="2040" y="610" as="targetPoint" />
          </mxGeometry>
        </mxCell>
        <mxCell id="qkw1Q6Vu093MNAPtEX1U-46" value="&amp;lt;&amp;lt;include&amp;gt;&amp;gt;" style="html=1;verticalAlign=bottom;labelBackgroundColor=none;endArrow=open;endFill=0;dashed=1;rounded=0;exitX=1;exitY=0.5;exitDx=0;exitDy=0;entryX=0.044;entryY=0.757;entryDx=0;entryDy=0;entryPerimeter=0;" edge="1" parent="1" source="qkw1Q6Vu093MNAPtEX1U-22" target="qkw1Q6Vu093MNAPtEX1U-25">
          <mxGeometry width="160" relative="1" as="geometry">
            <mxPoint x="1880" y="610" as="sourcePoint" />
            <mxPoint x="1950" y="630" as="targetPoint" />
          </mxGeometry>
        </mxCell>
        <mxCell id="qkw1Q6Vu093MNAPtEX1U-47" value="&amp;lt;&amp;lt;include&amp;gt;&amp;gt;" style="html=1;verticalAlign=bottom;labelBackgroundColor=none;endArrow=open;endFill=0;dashed=1;rounded=0;exitX=1;exitY=0.5;exitDx=0;exitDy=0;entryX=0.17;entryY=0.934;entryDx=0;entryDy=0;entryPerimeter=0;" edge="1" parent="1" source="G22dxIrqqhjrFOfUFqIZ-20" target="qkw1Q6Vu093MNAPtEX1U-25">
          <mxGeometry width="160" relative="1" as="geometry">
            <mxPoint x="1840" y="739.5" as="sourcePoint" />
            <mxPoint x="1910" y="610" as="targetPoint" />
          </mxGeometry>
        </mxCell>
        <mxCell id="qkw1Q6Vu093MNAPtEX1U-48" value="&amp;lt;&amp;lt;extend&amp;gt;&amp;gt;" style="html=1;verticalAlign=bottom;labelBackgroundColor=none;endArrow=open;endFill=0;dashed=1;rounded=0;exitX=0;exitY=0.5;exitDx=0;exitDy=0;entryX=1;entryY=0;entryDx=0;entryDy=0;" edge="1" parent="1" source="G22dxIrqqhjrFOfUFqIZ-18" target="qkw1Q6Vu093MNAPtEX1U-24">
          <mxGeometry width="160" relative="1" as="geometry">
            <mxPoint x="2220" y="600" as="sourcePoint" />
            <mxPoint x="2380" y="600" as="targetPoint" />
          </mxGeometry>
        </mxCell>
        <mxCell id="qkw1Q6Vu093MNAPtEX1U-50" value="&amp;lt;&amp;lt;extend&amp;gt;&amp;gt;" style="html=1;verticalAlign=bottom;labelBackgroundColor=none;endArrow=open;endFill=0;dashed=1;rounded=0;exitX=0;exitY=0.5;exitDx=0;exitDy=0;entryX=1;entryY=0.5;entryDx=0;entryDy=0;" edge="1" parent="1" source="G22dxIrqqhjrFOfUFqIZ-37" target="qkw1Q6Vu093MNAPtEX1U-24">
          <mxGeometry width="160" relative="1" as="geometry">
            <mxPoint x="2220" y="600" as="sourcePoint" />
            <mxPoint x="2380" y="600" as="targetPoint" />
          </mxGeometry>
        </mxCell>
        <mxCell id="qkw1Q6Vu093MNAPtEX1U-51" value="&amp;lt;&amp;lt;extend&amp;gt;&amp;gt;" style="html=1;verticalAlign=bottom;labelBackgroundColor=none;endArrow=open;endFill=0;dashed=1;rounded=0;exitX=0;exitY=0.5;exitDx=0;exitDy=0;entryX=1;entryY=1;entryDx=0;entryDy=0;" edge="1" parent="1" source="G22dxIrqqhjrFOfUFqIZ-19" target="qkw1Q6Vu093MNAPtEX1U-24">
          <mxGeometry width="160" relative="1" as="geometry">
            <mxPoint x="2220" y="600" as="sourcePoint" />
            <mxPoint x="2380" y="600" as="targetPoint" />
          </mxGeometry>
        </mxCell>
        <mxCell id="qkw1Q6Vu093MNAPtEX1U-52" value="" style="endArrow=open;startArrow=none;endFill=0;startFill=0;endSize=8;html=1;verticalAlign=bottom;labelBackgroundColor=none;strokeWidth=1;rounded=0;entryX=0;entryY=0.5;entryDx=0;entryDy=0;" edge="1" parent="1" target="G22dxIrqqhjrFOfUFqIZ-20">
          <mxGeometry width="160" relative="1" as="geometry">
            <mxPoint x="1090" y="735" as="sourcePoint" />
            <mxPoint x="1450" y="940" as="targetPoint" />
          </mxGeometry>
        </mxCell>
      </root>
    </mxGraphModel>
  </diagram>
</mxfile>
